<svg width="270" height="270" viewBox="0 0 270 270" fill="none" xmlns="http://www.w3.org/2000/svg">
<rect width="270" height="270" fill="#F9EFD6"/>
<rect width="270" height="270" fill="#1D1D1F"/>
<path d="M171.071 67.0008C170.275 66.9733 169.626 67.6217 169.626 68.4184V202.567C169.626 203.363 170.275 204.012 171.071 203.984C193.107 203.223 210.736 185.12 210.736 162.899V108.086C210.736 85.8651 193.107 67.762 171.071 67.0008Z" fill="white"/>
<path d="M114.813 68.4184C114.813 67.6217 115.462 66.9733 116.258 67.0008C138.293 67.762 155.923 85.8651 155.923 108.086V202.567C155.923 203.363 155.274 204.012 154.478 203.984C132.443 203.223 114.813 185.12 114.813 162.899V68.4184Z" fill="white"/>
<path d="M99.665 67.0008C100.461 66.9733 101.11 67.6217 101.11 68.4184V147.753C101.11 148.55 100.461 149.198 99.665 149.171C77.6297 148.41 59.9999 130.307 59.9999 108.086C59.9999 85.8651 77.6297 67.762 99.665 67.0008Z" fill="white"/>
<path d="M61.4424 162.899C60.6457 162.899 59.9974 163.548 60.0249 164.344C60.7694 185.9 78.1093 203.24 99.665 203.984C100.461 204.012 101.11 203.363 101.11 202.567V164.342C101.11 163.545 100.464 162.899 99.6674 162.899H61.4424Z" fill="white"/>
</svg>
