{
    "asset" : {
        "generator" : "Khronos glTF Blender I/O v1.2.75",
        "version" : "2.0"
    },
    "scene" : 0,
    "scenes" : [
        {
            "name" : "Scene",
            "nodes" : [
                0,
                1,
                2
            ]
        }
    ],
    "nodes" : [
        {
            "mesh" : 0,
            "name" : "Logo",
            "rotation" : [
                0.7071067690849304,
                0,
                0,
                0.7071067690849304
            ],
            "scale" : [
                5.527896881103516,
                5.527896881103516,
                5.511046409606934
            ]
        },
        {
            "mesh" : 1,
            "name" : "Logo.001",
            "rotation" : [
                0.7071067690849304,
                0,
                0,
                0.7071067690849304
            ],
            "scale" : [
                5.527896881103516,
                5.527896881103516,
                5.511046409606934
            ]
        },
        {
            "name" : "Camera",
            "rotation" : [
                0.7071067690849304,
                0,
                0,
                0.7071067690849304
            ],
            "translation" : [
                0,
                0,
                8.94313907623291
            ]
        }
    ],
    "materials" : [
        {
            "doubleSided" : true,
            "emissiveFactor" : [
                0,
                0,
                0
            ],
            "name" : "Material",
            "pbrMetallicRoughness" : {
                "baseColorFactor" : [
                    0.800000011920929,
                    0.800000011920929,
                    0.800000011920929,
                    1
                ],
                "metallicFactor" : 0,
                "roughnessFactor" : 0.5
            }
        }
    ],
    "meshes" : [
        {
            "name" : "Plane.002",
            "primitives" : [
                {
                    "attributes" : {
                        "POSITION" : 0,
                        "NORMAL" : 1,
                        "TEXCOORD_0" : 2
                    },
                    "indices" : 3,
                    "material" : 0
                }
            ]
        },
        {
            "name" : "Plane.001",
            "primitives" : [
                {
                    "attributes" : {
                        "POSITION" : 4,
                        "NORMAL" : 5,
                        "TEXCOORD_0" : 6
                    },
                    "indices" : 7,
                    "material" : 0
                }
            ]
        }
    ],
    "accessors" : [
        {
            "bufferView" : 0,
            "componentType" : 5126,
            "count" : 5253,
            "max" : [
                0.21046218276023865,
                0.0803578570485115,
                0.1954530030488968
            ],
            "min" : [
                -0.21896831691265106,
                0.0003578216128516942,
                -0.1954530030488968
            ],
            "type" : "VEC3"
        },
        {
            "bufferView" : 1,
            "componentType" : 5126,
            "count" : 5253,
            "type" : "VEC3"
        },
        {
            "bufferView" : 2,
            "componentType" : 5126,
            "count" : 5253,
            "type" : "VEC2"
        },
        {
            "bufferView" : 3,
            "componentType" : 5123,
            "count" : 30828,
            "type" : "SCALAR"
        },
        {
            "bufferView" : 4,
            "componentType" : 5126,
            "count" : 242,
            "max" : [
                0.21046218276023865,
                0.08035781979560852,
                0.19564926624298096
            ],
            "min" : [
                -0.21896831691265106,
                0.0003578216128516942,
                -0.19564926624298096
            ],
            "type" : "VEC3"
        },
        {
            "bufferView" : 5,
            "componentType" : 5126,
            "count" : 242,
            "type" : "VEC3"
        },
        {
            "bufferView" : 6,
            "componentType" : 5126,
            "count" : 242,
            "type" : "VEC2"
        },
        {
            "bufferView" : 7,
            "componentType" : 5123,
            "count" : 1380,
            "type" : "SCALAR"
        }
    ],
    "bufferViews" : [
        {
            "buffer" : 0,
            "byteLength" : 63036,
            "byteOffset" : 0
        },
        {
            "buffer" : 0,
            "byteLength" : 63036,
            "byteOffset" : 63036
        },
        {
            "buffer" : 0,
            "byteLength" : 42024,
            "byteOffset" : 126072
        },
        {
            "buffer" : 0,
            "byteLength" : 61656,
            "byteOffset" : 168096
        },
        {
            "buffer" : 0,
            "byteLength" : 2904,
            "byteOffset" : 229752
        },
        {
            "buffer" : 0,
            "byteLength" : 2904,
            "byteOffset" : 232656
        },
        {
            "buffer" : 0,
            "byteLength" : 1936,
            "byteOffset" : 235560
        },
        {
            "buffer" : 0,
            "byteLength" : 2760,
            "byteOffset" : 237496
        }
    ],
    "buffers" : [
        {
            "byteLength" : 240256,
            "uri" : "data:application/octet-stream;base64,"
        }
    ]
}
