<?xml version="1.0" encoding="UTF-8"?>
<svg width="210px" height="210px" viewBox="0 0 210 210" version="1.1" xmlns="http://www.w3.org/2000/svg" xmlns:xlink="http://www.w3.org/1999/xlink">
    <path d="M105,209 C134,210 158,196 178.539105,178.539105 C199.07821,161.07821 208,134 209,105 C210,76 199.07821,49.9217895 178.539105,31.4608948 C158,13 133,1.28785871e-14 105,1 C77,2 50,12 31.4608948,31.4608948 C12.9217895,50.9217895 2,76 1,105 C-1.12576615e-13,134 11,160 31.4608948,178.539105 C51.9217895,197.07821 76,208 105,209 Z" id="logo-bg" fill="#1D1D1F"></path>
    <path d="M110.799434,43.2255087 C129.229961,43.2255087 145.915653,50.6960382 157.993631,62.7742188 L137.117582,83.6496882 C131.954911,67.2046902 122.103563,56.0914574 110.799434,56.0914574 C94.1455261,56.0914574 80.6448665,80.2126359 80.6448665,109.967618 C80.6448665,119.526054 82.0380533,128.503117 84.4814118,136.28595 L63.606035,157.161814 C51.5278544,145.083837 44.0573248,128.398145 44.0573248,109.967618 C44.0573248,73.1069687 73.9387848,43.2255087 110.799434,43.2255087 Z M117.698519,92.244617 C135.746302,92.244617 150.411093,106.487636 150.702584,124.166453 L150.707006,124.703216 L150.707006,157.161814 L118.101062,157.161814 L118.104224,157.158648 L118.101003,157.158648 L118.101332,144.383562 C119.344409,143.319368 120.577036,142.189321 121.789539,140.997017 C134.680155,128.321146 140.414861,113.408669 134.598364,107.689069 C128.781866,101.969469 113.616754,107.60864 100.726138,120.284511 C99.9139421,121.083177 99.1301538,121.890722 98.3757962,122.704287 L98.3757962,98.3843391 C103.807635,94.5214312 110.482683,92.244617 117.698519,92.244617 Z" id="G" fill="#FFFFFF"></path>
</svg>