<svg width="73" height="60" viewBox="0 0 73 60" fill="none" xmlns="http://www.w3.org/2000/svg">
<path d="M28.8124 32.989C29.0767 28.2747 31.3852 24.1213 34.868 21.177C38.2834 18.2851 42.8806 16.5176 47.8966 16.5176C52.9075 16.5176 57.5047 18.2851 60.9227 21.177C64.4029 24.1213 66.7114 28.2747 66.9782 32.984C67.2424 37.8279 65.2954 42.3279 61.88 45.6635C58.3972 49.0565 53.4435 51.1857 47.8966 51.1857C42.3496 51.1857 37.3859 49.0565 33.9057 45.6635C30.4877 42.3279 28.5457 37.828 28.8124 32.989Z" fill="white"/>
<path d="M38.1346 33.4101C38.2701 30.9911 39.4547 28.86 41.2417 27.3493C42.9942 25.8654 45.353 24.9585 47.9267 24.9585C50.4979 24.9585 52.8567 25.8654 54.6105 27.3493C56.3963 28.86 57.5808 30.9911 57.7176 33.4075C57.8532 35.893 56.8542 38.2019 55.1017 39.9135C53.3147 41.6544 50.7729 42.7469 47.9267 42.7469C45.0805 42.7469 42.5337 41.6544 40.7479 39.9135C38.9942 38.2019 37.9977 35.893 38.1346 33.4101Z" fill="#265787"/>
<path d="M22.5388 38.311C22.5554 39.2576 22.8573 41.0971 23.3102 42.5336C24.2619 45.5743 25.8762 48.3872 28.1225 50.8662C30.4276 53.4144 33.2661 55.4611 36.5447 56.9142C39.9908 58.4403 43.7247 59.2181 47.6032 59.2117C51.4754 59.2066 55.2093 58.4134 58.6555 56.8759C61.934 55.4086 64.77 53.353 67.0712 50.8036C69.3162 48.3143 70.928 45.4962 71.8823 42.4556C72.362 40.9193 72.6651 39.3599 72.7867 37.7955C72.9056 36.2541 72.8557 34.7101 72.637 33.1674C72.2097 30.1613 71.1697 27.3407 69.5682 24.7695C68.1035 22.4068 66.2155 20.3384 63.9705 18.5974L63.9756 18.5936L41.3199 1.1979C41.2994 1.18255 41.2828 1.16595 41.261 1.15188C39.7746 0.0108434 37.2751 0.0146873 35.6403 1.15828C33.9876 2.31467 33.7982 4.22703 35.2693 5.4333L35.2629 5.43971L44.7123 13.1238L15.9113 13.1545H15.873C13.4924 13.1571 11.2039 14.7189 10.7511 16.6927C10.2855 18.7036 11.9024 20.3717 14.3776 20.3806L14.3738 20.3896L28.9719 20.3614L2.92244 40.3564C2.88919 40.3807 2.85336 40.4063 2.82266 40.4306C0.365341 42.3123 -0.429017 45.4412 1.1188 47.4214C2.68965 49.4348 6.02961 49.4387 8.51251 47.4329L22.7294 35.7974C22.7294 35.7974 22.5222 37.3682 22.5388 38.311ZM59.0712 43.571C56.1418 46.5554 52.0408 48.2478 47.6032 48.2567C43.1593 48.2644 39.0583 46.5874 36.1289 43.6081C34.6975 42.1563 33.646 40.4856 32.9975 38.7063C32.3617 36.9576 32.1148 35.1015 32.2786 33.2288C32.4333 31.3983 32.9783 29.6522 33.8481 28.0724C34.7026 26.5194 35.8795 25.1162 37.3326 23.9291C40.1801 21.6087 43.8053 20.3525 47.5969 20.3474C51.3922 20.3422 55.0149 21.5869 57.8649 23.8997C59.3155 25.0816 60.4911 26.4798 61.3456 28.0302C62.2193 29.6087 62.7604 31.3484 62.9215 33.184C63.0827 35.0542 62.8358 36.9078 62.2001 38.6577C61.5503 40.4422 60.5026 42.1127 59.0712 43.571Z" fill="#EA7600"/>
</svg>
