<?xml version="1.0" encoding="UTF-8"?>
<svg width="184px" height="171px" viewBox="0 0 184 171" version="1.1" xmlns="http://www.w3.org/2000/svg" xmlns:xlink="http://www.w3.org/1999/xlink">
    <title>Group</title>
    <g id="Page-1" stroke="none" stroke-width="1" fill="none" fillRule="evenodd">
        <g id="Group" fillRule="nonzero">
            <path d="M183.432156,89.959 C183.384156,86.896 182.935156,83.877 182.098156,80.984 C181.197156,77.87 179.868156,74.807 178.138156,71.854 C179.230156,65.096 178.797156,58.165 176.845156,51.22 C175.755156,47.342 174.188156,43.549 172.187156,39.946 C170.329156,36.6 168.038156,33.316 165.379156,30.184 C162.386156,26.659 158.965156,23.372 155.211156,20.413 C151.725156,17.666 147.837156,15.112 143.653156,12.822 C136.444156,8.876 128.678156,5.803 120.570156,3.689 C112.945156,1.701 104.780156,0.5 96.3021565,0.12 C94.5071565,0.041 92.6931565,0 90.9091565,0 C85.2441565,0 79.5581565,0.411 74.0081565,1.223 C69.3581565,1.903 64.8041565,2.844 60.4741565,4.021 C55.9441565,5.252 51.5111565,6.78 47.2961565,8.564 C42.4881565,10.599 37.9741565,12.942 33.8791565,15.529 C29.4671565,18.316 25.3771565,21.489 21.7211565,24.959 C18.8221565,27.711 16.2401565,30.61 14.0471565,33.577 C11.6511565,36.818 9.62815645,40.259 8.03615645,43.805 C3.23715645,54.494 2.17115645,65.255 4.85515645,75.84 C3.57715645,77.84 2.55915645,79.805 1.76715645,81.79 C1.17515645,83.275 0.36615645,85.563 0.17115645,88.272 C-0.14584355,92.663 0.0431564502,95.304 0.21315645,96.909 C0.54615645,100.06 1.23015645,102.829 2.30515645,105.375 C3.18115645,107.451 4.32015645,109.358 5.70615645,111.073 C5.70215645,116.344 5.98815645,120.701 6.60215645,124.77 C8.26015645,135.749 13.3961565,145.052 21.8681565,152.421 C25.8921565,155.921 30.4961565,158.838 35.9431565,161.34 C41.7391565,164.002 48.1241565,166.044 55.4651565,167.583 C64.1341565,169.401 73.1991565,170.416 83.1801565,170.687 C86.6191565,170.78 89.8181565,170.826 92.9601565,170.826 C101.967156,170.826 110.101156,170.444 117.827156,169.66 C124.608156,168.971 130.236156,168.041 135.537156,166.732 C142.230156,165.08 147.977156,162.856 153.105156,159.934 C162.022156,154.853 168.546156,147.585 172.496156,138.332 C174.607156,133.387 176.049156,128.144 176.906156,122.303 C177.572156,117.764 177.814156,113.131 177.641156,108.209 C178.494156,107.307 179.253156,106.329 179.913156,105.283 C181.169156,103.292 182.063156,101.051 182.570156,98.624 C183.186156,95.673 183.476156,92.758 183.432156,89.959 Z" id="logo_background" fill="#FFFFFF"></path>
            <path d="M173.954156,83.388 C173.055156,80.28 171.667156,77.398 169.907156,74.696 C169.433156,73.968 169.249156,73.307 169.437156,72.417 C170.780156,66.076 170.432156,59.787 168.682156,53.564 C166.793156,46.844 163.377156,40.954 158.882156,35.66 C153.434156,29.244 146.851156,24.233 139.501156,20.21 C125.884156,12.754 111.195156,9.212 95.7701565,8.519 C88.8411565,8.208 81.9311565,8.536 75.0521565,9.542 C66.5431565,10.786 58.3011565,12.96 50.3781565,16.313 C41.8421565,19.926 34.0321565,24.678 27.2861565,31.082 C22.3541565,35.764 18.2581565,41.074 15.4621565,47.303 C11.2301565,56.728 10.2731565,66.405 13.4601565,76.345 C13.7251565,77.172 13.5521565,77.757 13.0651565,78.422 C11.5761565,80.458 10.2701565,82.606 9.33215645,84.961 C8.81715645,86.252 8.40515645,87.568 8.30515645,88.964 C8.13315645,91.353 8.07115645,93.745 8.32315645,96.129 C8.77815645,100.435 10.1401565,104.348 13.3771565,107.417 C13.5581565,107.588 13.7011565,107.798 13.8621565,107.99 C13.8621565,109.009 13.8641565,110.015 13.8621565,111.02 C13.8541565,115.238 14.0331565,119.437 14.6651565,123.623 C16.0391565,132.724 20.2481565,140.225 27.1671565,146.243 C30.8041565,149.406 34.8861565,151.873 39.2551565,153.879 C44.9431565,156.491 50.9011565,158.259 57.0141565,159.541 C65.6651565,161.355 74.4301565,162.232 83.2481565,162.471 C94.4551565,162.775 105.658156,162.618 116.830156,161.483 C122.409156,160.916 127.942156,160.099 133.388156,158.755 C138.784156,157.423 143.983156,155.569 148.832156,152.805 C156.076156,148.677 161.416156,142.838 164.693156,135.161 C166.605156,130.683 167.818156,126.003 168.524156,121.19 C169.248156,116.252 169.374156,111.291 169.064156,106.315 C169.029156,105.756 169.059156,105.193 169.059156,104.635 C169.336156,104.406 169.568156,104.194 169.820156,104.011 C172.227156,102.265 173.673156,99.903 174.276156,97.017 C175.228156,92.451 175.260156,87.905 173.954156,83.388 Z M25.8701565,54.851 C27.3271565,50.843 29.5291565,47.27 32.2601565,44.011 C36.0611565,39.477 40.6101565,35.825 45.6311565,32.74 C52.6091565,28.453 60.1581565,25.548 68.0891565,23.599 C77.1411565,21.376 86.3391565,20.566 95.6341565,21.016 C107.509156,21.591 118.938156,24.113 129.722156,29.239 C133.032156,30.812 136.120156,32.754 138.907156,35.146 C141.133156,37.056 142.918156,39.311 144.130156,41.998 C145.687156,45.448 145.931156,49.065 145.267156,52.722 C143.829156,60.649 139.723156,66.928 133.242156,71.685 C130.180156,73.932 126.846156,75.691 123.366156,77.18 C121.400156,78.021 119.401156,78.786 117.427156,79.61 C116.732156,79.9 116.049156,80.231 115.394156,80.602 C115.020156,80.814 114.672156,81.109 114.387156,81.433 C113.977156,81.899 114.045156,82.605 114.587156,82.91 C115.177156,83.242 115.833156,83.502 116.493156,83.652 C118.729156,84.16 121.008156,84.065 123.266156,83.896 C129.498156,83.432 135.621156,82.332 141.616156,80.554 C146.417156,79.13 150.935156,77.109 154.985156,74.121 C155.183156,73.975 155.413156,73.869 155.634156,73.756 C155.670156,73.738 155.737156,73.782 155.918156,73.835 C155.785156,74.174 155.679156,74.514 155.525156,74.83 C154.008156,77.927 151.875156,80.547 149.299156,82.82 C146.255156,85.505 142.830156,87.604 139.188156,89.367 C133.549156,92.097 127.611156,93.943 121.510156,95.278 C114.549156,96.8 107.497156,97.643 100.382156,98.06 C93.3271565,98.473 86.2811565,98.43 79.2401565,97.931 C69.6071565,97.248 60.1131565,95.754 50.9131565,92.701 C46.7221565,91.31 42.6741565,89.591 38.8571565,87.359 C36.1841565,85.796 33.6881565,83.994 31.4641565,81.831 C27.9951565,78.458 25.5201565,74.505 24.5871565,69.709 C23.6001565,64.645 24.1121565,59.687 25.8701565,54.851 Z M157.755156,121.076 C156.990156,124.987 155.166156,128.408 152.603156,131.441 C150.221156,134.26 147.357156,136.5 144.193156,138.375 C139.500156,141.155 134.433156,143.013 129.185156,144.407 C123.396156,145.944 117.505156,146.901 111.548156,147.515 C103.646156,148.329 95.7261565,148.646 87.7881565,148.523 C81.1111565,148.42 74.4531565,147.998 67.8421565,147.027 C60.9141565,146.01 54.1201565,144.453 47.6231565,141.77 C43.3551565,140.007 39.3321565,137.816 35.7541565,134.87 C31.0751565,131.018 27.6131565,126.323 25.8881565,120.45 C25.2281565,118.205 24.8401565,115.917 24.8821565,113.569 C24.8881565,113.207 24.9531565,112.845 24.9971565,112.425 C25.5871565,112.425 26.0811565,112.375 26.5621565,112.434 C28.8221565,112.71 31.0891565,112.731 33.3511565,112.567 C39.2341565,112.139 44.5581565,113.67 49.4081565,116.983 C52.3281565,118.978 55.0071565,121.265 57.5661565,123.692 C59.5751565,125.598 61.5341565,127.556 63.5051565,129.502 C65.8061565,131.773 68.3531565,133.701 71.2611565,135.135 C74.5291565,136.747 77.9711565,137.655 81.6301565,137.589 C85.0181565,137.528 88.2151565,136.656 91.2551565,135.176 C93.7031565,133.984 95.9231565,132.449 98.0081565,130.708 C98.7321565,130.104 99.4561565,129.494 100.218156,128.939 C103.985156,126.192 108.199156,125.389 112.754156,126.099 C115.312156,126.498 117.764156,127.3 120.242156,128.013 C122.597156,128.691 124.955156,129.388 127.353156,129.88 C129.897156,130.402 132.476156,130.389 135.029156,129.733 C137.643156,129.062 139.560156,127.553 140.585156,125.059 C141.180156,123.612 141.583156,122.085 142.051156,120.587 C142.444156,119.327 142.756156,118.041 143.190156,116.796 C144.334156,113.515 146.598156,111.433 149.998156,110.621 C152.737156,109.967 155.477156,109.32 158.329156,108.643 C158.420156,109.033 158.543156,109.321 158.547156,109.61 C158.601156,113.455 158.495156,117.295 157.755156,121.076 Z" id="logo_foreground" fill="#000000"></path>
        </g>
    </g>
</svg>