<?xml version="1.0" encoding="UTF-8"?>
<svg width="136px" height="136px" viewBox="0 0 136 136" version="1.1" xmlns="http://www.w3.org/2000/svg" xmlns:xlink="http://www.w3.org/1999/xlink">
    <title>github</title>
    <g id="Page-1" stroke="none" stroke-width="1" fill="none" fillRule="evenodd">
        <g id="Artboard" transform="translate(-5.000000, -5.000000)">
            <g id="github" transform="translate(5.000000, 5.000000)">
                <rect id="Rectangle" fill="#FFFFFF" x="0" y="0" width="136" height="136" rx="8"></rect>
                <g id="Group" transform="translate(7.000000, 8.000000)" fill="#161514">
                    <path d="M60.388,0 C27.041,0 0,27.036 0,60.388 C0,87.069 17.303,109.705 41.297,117.69 C44.315,118.249 45.423,116.38 45.423,114.785 C45.423,113.345 45.367,108.588 45.341,103.542 C28.541,107.195 24.996,96.417 24.996,96.417 C22.249,89.437 18.291,87.581 18.291,87.581 C12.812,83.833 18.704,83.91 18.704,83.91 C24.768,84.336 27.961,90.133 27.961,90.133 C33.347,99.365 42.088,96.696 45.534,95.153 C46.076,91.25 47.641,88.586 49.368,87.078 C35.955,85.551 21.855,80.373 21.855,57.234 C21.855,50.641 24.214,45.254 28.077,41.025 C27.45,39.504 25.383,33.362 28.662,25.044 C28.662,25.044 33.733,23.421 45.273,31.234 C50.09,29.896 55.256,29.225 60.388,29.202 C65.52,29.225 70.69,29.896 75.516,31.234 C87.042,23.421 92.106,25.044 92.106,25.044 C95.393,33.362 93.325,39.504 92.698,41.025 C96.57,45.254 98.913,50.641 98.913,57.234 C98.913,80.428 84.786,85.535 71.339,87.03 C73.505,88.904 75.435,92.579 75.435,98.213 C75.435,106.293 75.365,112.796 75.365,114.785 C75.365,116.392 76.452,118.275 79.513,117.682 C103.494,109.688 120.775,87.06 120.775,60.388 C120.775,27.036 93.738,0 60.388,0" id="Fill-5"></path>
                    <path d="M22.872,86.704 C22.739,87.004 22.267,87.094 21.837,86.888 C21.399,86.691 21.153,86.282 21.295,85.981 C21.425,85.672 21.898,85.586 22.335,85.793 C22.774,85.99 23.024,86.403 22.872,86.704" id="Fill-6"></path>
                    <path d="M25.318,89.432 C25.03,89.699 24.467,89.575 24.085,89.153 C23.69,88.732 23.616,88.169 23.908,87.898 C24.205,87.631 24.751,87.756 25.147,88.177 C25.542,88.603 25.619,89.162 25.318,89.432" id="Fill-7"></path>
                    <path d="M27.699,92.91 C27.329,93.167 26.724,92.926 26.35,92.389 C25.98,91.852 25.98,91.208 26.358,90.95 C26.733,90.692 27.329,90.924 27.708,91.457 C28.077,92.003 28.077,92.647 27.699,92.91" id="Fill-8"></path>
                    <path d="M30.961,96.27 C30.63,96.635 29.925,96.537 29.409,96.039 C28.881,95.552 28.734,94.861 29.066,94.496 C29.401,94.13 30.11,94.233 30.63,94.727 C31.154,95.213 31.314,95.909 30.961,96.27" id="Fill-9"></path>
                    <path d="M35.461,98.221 C35.315,98.694 34.636,98.909 33.952,98.708 C33.269,98.501 32.822,97.947 32.96,97.469 C33.102,96.993 33.784,96.769 34.473,96.984 C35.155,97.19 35.603,97.74 35.461,98.221" id="Fill-10"></path>
                    <path d="M40.403,98.583 C40.42,99.081 39.84,99.494 39.122,99.503 C38.4,99.519 37.816,99.116 37.808,98.626 C37.808,98.123 38.375,97.714 39.097,97.702 C39.815,97.688 40.403,98.088 40.403,98.583" id="Fill-11"></path>
                    <path d="M45.002,97.8 C45.088,98.286 44.589,98.785 43.876,98.918 C43.175,99.046 42.526,98.746 42.437,98.264 C42.35,97.766 42.858,97.267 43.558,97.138 C44.272,97.014 44.911,97.306 45.002,97.8" id="Fill-12"></path>
                </g>
            </g>
        </g>
    </g>
</svg>