<?xml version="1.0" encoding="UTF-8"?>
<svg width="128px" height="128px" viewBox="0 0 128 128" version="1.1" xmlns="http://www.w3.org/2000/svg" xmlns:xlink="http://www.w3.org/1999/xlink">
    <title>mymind</title>
    <defs>
        <path d="M26.1580859,0.112804912 C25.3582938,0 24.4443691,0 23.5304444,0 C21.3598516,0 19.1892588,0.338414047 17.018666,1.01524386 C9.93555079,3.38414047 4.56613511,9.47561395 1.82430915,18.0487721 C-0.80327537,26.3963163 -0.574789008,36.2104372 2.39552505,45.6860512 C7.30796108,61.0274558 18.73221,72.4207023 30.8420149,73.8872791 C31.7559396,74 32.6698643,74 33.4696564,74 C35.6402492,74 37.810842,73.6616651 39.9814348,72.9848233 C47.0645673,70.6157907 52.5481155,64.6372791 55.1757571,55.9512279 C57.8032257,47.6036837 57.5747878,37.7895628 54.6045758,28.3139488 C49.692036,12.9725614 38.2677179,1.69207367 26.1580859,0.112804912 Z" id="path-1"></path>
    </defs>
    <g id="mymind" stroke="none" stroke-width="1" fill="none" fillRule="evenodd">
        <circle id="Oval" fill="#FF5924" cx="64" cy="64" r="64"></circle>
        <g transform="translate(35.000000, 27.000000)">
            <mask id="mask-2" fill="white">
                <use xlink:href="#path-1"></use>
            </mask>
            <g id="Path"></g>
            <path d="M26.1580859,0.112804912 L25.5580256,4.32505907 L25.5803334,4.32819116 L25.6026411,4.33109953 L26.1580859,0.112804912 Z M17.018666,1.01524386 L15.7403993,-3.04449767 L15.6984469,-3.0314186 L15.656754,-3.01747907 L17.018666,1.01524386 Z M1.82430915,18.0487721 L-2.24938611,16.7585047 L-2.25521725,16.7770219 L1.82430915,18.0487721 Z M2.39552505,45.6860512 L-1.685511,46.953 L-1.68162877,46.9653907 L-1.67767045,46.9776093 L2.39552505,45.6860512 Z M30.8420149,73.8872791 L31.3682349,69.6651488 L31.358378,69.6639442 L30.8420149,73.8872791 Z M39.9814348,72.9848233 L41.2595459,77.0444977 L41.3015674,77.0314186 L41.3432431,77.0174791 L39.9814348,72.9848233 Z M55.1757571,55.9512279 L51.0962117,54.6794605 L51.0891216,54.7021767 L51.0822045,54.724893 L55.1757571,55.9512279 Z M54.6045758,28.3139488 L58.6855046,27.047 L58.6817002,27.0346093 L58.6777228,27.0223907 L54.6045758,28.3139488 Z M26.7579733,-4.09944512 C25.6014306,-4.2625893 24.3660327,-4.25443229 23.5304444,-4.25443229 L23.5304444,4.25436326 C24.5228784,4.25436326 25.1151569,4.2625893 25.5580256,4.32505907 L26.7579733,-4.09944512 Z M23.5304444,-4.25436326 C20.9059155,-4.25436326 18.3047319,-3.8441107 15.7403993,-3.04449767 L18.2967772,5.07498884 C20.0736128,4.52093535 21.8137877,4.25436326 23.5304444,4.25436326 L23.5304444,-4.25436326 Z M15.656754,-3.01747907 C6.97856775,-0.115087209 0.797791002,7.23071209 -2.24934461,16.7585219 L5.89795771,19.3391256 C8.33449652,11.7204986 12.8925165,6.88337674 18.3804744,5.04795302 L15.656754,-3.01747907 Z M-2.25521725,16.7770219 C-5.18053889,26.0705442 -4.87476753,36.7788605 -1.685511,46.953 L6.47655765,44.4191023 C3.72518605,35.6418419 3.57399506,26.7222605 5.90383727,19.3205395 L-2.25521725,16.7770219 Z M-1.67767045,46.9776093 C3.53838918,63.2674186 15.9791783,76.3731628 30.3256517,78.1104419 L31.358378,69.6639442 C21.4853973,68.468414 11.077533,58.787493 6.46872401,44.3943209 L-1.67767045,46.9776093 Z M30.3157948,78.1092372 C31.5321707,78.2593023 32.7042769,78.254331 33.4696564,78.254331 L33.4696564,69.7456884 C32.6354516,69.7456884 31.9797084,69.7406977 31.3682349,69.6651488 L30.3157948,78.1092372 Z M33.4696564,78.2543116 C36.0941853,78.2543116 38.695196,77.8440419 41.2595459,77.0444977 L38.7031507,68.9249767 C36.9263151,69.4791163 35.1863131,69.7456884 33.4696564,69.7456884 L33.4696564,78.2543116 Z M41.3432431,77.0174791 C49.9733899,74.1311349 56.3186385,66.9312791 59.2693097,57.1775628 L51.0822045,54.724893 C48.7775925,62.343107 44.1555718,67.1006186 38.6196264,68.9519953 L41.3432431,77.0174791 Z M59.2553025,57.2229953 C62.1805532,47.9294558 61.8748164,37.2211395 58.6855046,27.047 L50.523474,29.5808977 C53.2747591,38.3581581 53.4260712,47.2777395 51.0962117,54.6794605 L59.2553025,57.2229953 Z M58.6777228,27.0223907 C53.4514916,10.700813 41.0065522,-2.24149442 26.7135308,-4.10548558 L25.6026411,4.33109953 C35.5290565,5.62563488 45.9327533,15.2443098 50.5312557,29.6056791 L58.6777228,27.0223907 Z" id="Shape" fill="#271C46" fillRule="nonzero" mask="url(#mask-2)"></path>
            <path d="M23.000089,36 C25.2092024,36 27,34.2091401 27,31.9999103 C27,29.7908599 25.2092024,28 23.000089,28 C20.7907976,28 19,29.7908599 19,31.9999103 C19,34.2091401 20.7907976,36 23.000089,36 Z" id="Path" stroke="#271C46" stroke-width="0.0839844" fill="#271C46" fillRule="nonzero" mask="url(#mask-2)"></path>
            <polygon id="Path" fill="#271C46" fillRule="nonzero" mask="url(#mask-2)" points="42.1420088 49 30 18 49 46.3332823"></polygon>
        </g>
    </g>
</svg>