<?xml version="1.0" encoding="UTF-8"?>
<svg width="177px" height="177px" viewBox="0 0 177 177" version="1.1" xmlns="http://www.w3.org/2000/svg" xmlns:xlink="http://www.w3.org/1999/xlink">
    <title>Fill 90</title>
    <g id="Page-1" stroke="none" stroke-width="1" fill="none" fillRule="evenodd">
        <g id="Raycast_logos" transform="translate(-51.000000, -2889.000000)" fill="#E15D5E">
            <path d="M178.186,3007.3 L183.44,3002.05 L115.208,3002.05 L115.208,2933.81 L109.952,2939.07 L100.109,2929.22 L90.936,2938.4 L100.779,2948.24 L95.522,2953.5 L95.522,2964.01 L80.425,2948.91 L71.249,2958.09 L95.522,2982.36 L95.522,3003.38 L60.738,2968.6 L51.562,2977.77 L139.481,3065.69 L148.656,3056.52 L113.87,3021.73 L134.893,3021.73 L159.168,3046.01 L168.343,3036.83 L153.244,3021.73 L163.755,3021.73 L169.011,3016.48 L178.854,3026.32 L188.028,3017.14 L178.186,3007.3 Z M183.44,2973.18 L183.44,2991.53 L198.539,3006.63 L207.715,2997.46 L183.44,2973.18 Z M119.796,2909.54 L110.621,2918.71 L125.72,2933.81 L144.069,2933.81 L119.796,2909.54 Z M139.481,2889.85 L130.307,2899.03 L165.092,2933.81 L183.44,2933.81 L139.481,2889.85 Z M227.4,2977.77 L218.226,2986.95 L183.44,2952.16 L183.44,2933.81 L227.4,2977.77 L227.4,2977.77 Z" id="Fill-90"></path>
        </g>
    </g>
</svg>