<?xml version="1.0" encoding="UTF-8"?>
<svg width="152px" height="152px" viewBox="0 0 152 152" version="1.1" xmlns="http://www.w3.org/2000/svg" xmlns:xlink="http://www.w3.org/1999/xlink">
    <title>readwise</title>
    <g id="readwise" stroke="none" stroke-width="1" fill="none" fillRule="evenodd">
        <rect fill="#FFFFFF" x="0" y="0" width="152" height="152"></rect>
        <g id="R" transform="translate(12.000000, 12.000000)">
            <polygon id="Path" stroke="#000000" stroke-width="5.40084388" points="0 128 0 0 128 0 128 128"></polygon>
            <path d="M93.9420084,92.7762363 C96.7547679,97.4552574 99.0487764,99.0107004 103.74103,99.5680675 L103.74103,104.247089 L80.5916624,104.247089 L58.9067342,68.0584641 L53.4888776,68.0584641 L53.4888776,91.7781603 C53.4888776,98.1292827 55.0572827,99.0107004 61.7324557,99.5680675 L61.7324557,104.247089 L26.7879156,104.247089 L26.7879156,99.5680675 C33.4630886,99.0107004 35.0314937,98.1163207 35.0314937,91.7781603 L35.0314937,38.7780591 C35.0314937,32.3232405 33.670481,31.545519 26.7879156,30.9881519 L26.7879156,26.3091308 L62.7564557,26.3091308 C84.4411139,26.3091308 95.769654,30.8714937 95.769654,46.9049789 C95.769654,59.0371646 89.8722025,64.8309198 77.9862954,66.8270717 L93.9420084,92.7762363 Z M56.6127257,33.8916456 C54.7332321,33.8916456 53.4888776,35.2267342 53.4888776,37.2355781 L53.4888776,60.5018734 L62.4583291,60.5018734 C71.7388692,60.5018734 77.2604219,57.1576709 77.2604219,46.9179409 C77.2604219,36.5618228 71.7388692,33.8916456 62.7694177,33.8916456 L56.6127257,33.8916456 Z" id="Shape" fill="#000000" fillRule="nonzero"></path>
            <polygon id="Path" fill="#000000" fillRule="nonzero" points="80.9292152 29.0965063 47.2031055 29.0965063 47.2031055 61.293097 80.9292152 61.293097"></polygon>
            <path d="M76.6917131,34.6566751 C74.8511055,38.0394937 77.689519,53.9825148 77.689519,53.9825148 C77.7284051,54.8247764 77.158346,55.5636118 76.3287764,55.7450802 C76.3287764,55.7450802 58.9472405,55.8228523 53.2050633,60.5928776" id="Path" fill="#F4F9F9" fillRule="nonzero"></path>
        </g>
    </g>
</svg>